<svg width="14" height="24" viewBox="0 0 14 24" fill="none" xmlns="http://www.w3.org/2000/svg">
    <path
        d="M7.77178 1.44333C3.9414 2.49807 1.48034 4.03392 0 6.23593C3.14948 4.71408 5.16268 4.42251 6.06939 5.45875C7.16114 6.95759 4.40401 9.65921 0.407093 12.0463L3.25675 15.0069C4.16463 13.1814 4.4092 12.3575 4.45952 11.1766C10.5104 7.64225 13.5821 3.75636 13.2675 0C12.3238 0.148034 9.75174 0.999229 7.77178 1.44333Z"
        fill="white" />
    <path
        d="M11.8612 11.9907L9.1411 9.19661C7.75174 10.5367 7.0588 11.1638 6.21743 11.7132C6.26484 12.3228 6.00399 12.8987 5.14418 14.2483C2.73863 18.7263 3.66384 22.3161 6.86507 24C3.10871 19.4665 6.45798 14.8034 11.8612 11.9907Z"
        fill="white" />
</svg>