<svg width="24" height="24" viewBox="0 0 24 24" fill="none" xmlns="http://www.w3.org/2000/svg">
    <path
        d="M18.06 7H5.93997C5.68645 6.99938 5.44215 7.09508 5.25651 7.26773C5.07086 7.44038 4.95772 7.6771 4.93997 7.93L4.13997 19.87C4.12216 20.1434 4.16071 20.4175 4.25321 20.6753C4.34572 20.9332 4.49021 21.1693 4.67774 21.369C4.86526 21.5687 5.09181 21.7278 5.34334 21.8363C5.59487 21.9449 5.86602 22.0006 6.13997 22H17.86C18.1339 22.0006 18.4051 21.9449 18.6566 21.8363C18.9081 21.7278 19.1347 21.5687 19.3222 21.369C19.5097 21.1693 19.6542 20.9332 19.7467 20.6753C19.8392 20.4175 19.8778 20.1434 19.86 19.87L19.06 7.93C19.0422 7.6771 18.9291 7.44038 18.7434 7.26773C18.5578 7.09508 18.3135 6.99938 18.06 7Z"
        stroke="white" stroke-width="1.5" stroke-linecap="round" stroke-linejoin="round" />
    <path
        d="M15 9V5C15 4.20435 14.6839 3.44129 14.1213 2.87868C13.5587 2.31607 12.7956 2 12 2C11.2044 2 10.4413 2.31607 9.87868 2.87868C9.31607 3.44129 9 4.20435 9 5V5V9"
        stroke="white" stroke-width="1.5" stroke-linecap="round" stroke-linejoin="round" />
</svg>